999
DXF from OpenSCAD
  0
SECTION
  2
HEADER
  9
$ACADVER
  1
AC1006
  9
$INSBASE
 10
0.0
 20
0.0
 30
0.0
  9
$EXTMIN
 10
-200
 20
-920
  9
$EXTMAX
 10
600
 20
2.22507e-308
  9
$LINMIN
 10
-200
 20
-920
  9
$LINMAX
 10
600
 20
2.22507e-308
  0
ENDSEC
  0
SECTION
  2
TABLES
  0
TABLE
  2
LTYPE
 70
1
  0
LTYPE
  2
CONTINUOUS
 70
64
  3
Solid line
 72
65
 73
0
 40
0.000000
  0
ENDTAB
  0
TABLE
  2
LAYER
 70
6
  0
LAYER
  2
0
 70
64
 62
7
  6
CONTINUOUS
  0
ENDTAB
  0
TABLE
  2
STYLE
 70
0
  0
ENDTAB
  0
ENDSEC
  0
SECTION
  2
BLOCKS
  0
ENDSEC
  0
SECTION
  2
ENTITIES
  0
LWPOLYLINE
100
AcDbEntity
  8
0
100
AcDbPolyline
 90
18
 70
1
 10
40
 20
-355
 10
80
 20
-355
 10
80
 20
-350
 10
600
 20
-350
 10
600
 20
-290
 10
338.75
 20
-290
 10
136.25
 20
-20
 10
200
 20
-20
 10
200
 20
0
 10
-200
 20
0
 10
-200
 20
-20
 10
-40
 20
-20
 10
-40
 20
-285
 10
-80
 20
-285
 10
-80
 20
-355
 10
-40
 20
-355
 10
-40
 20
-920
 10
40
 20
-920
  0
LWPOLYLINE
100
AcDbEntity
  8
0
100
AcDbPolyline
 90
7
 70
1
 10
80
 20
-290
 10
80
 20
-285
 10
40
 20
-285
 10
40
 20
-20
 10
120
 20
-20
 10
109.6
 20
-27.8
 10
306.25
 20
-290
  0
LWPOLYLINE
100
AcDbEntity
  8
0
100
AcDbPolyline
 90
132
 70
1
 10
95.2135
 20
-252.427
 10
95.7455
 20
-251.724
 10
99.7128
 20
-249.454
 10
99.7128
 20
-239.99
 10
95.7455
 20
-237.72
 10
95.2135
 20
-237.017
 10
76.9718
 20
-234.167
 10
95.2135
 20
-231.316
 10
95.7455
 20
-230.613
 10
99.7128
 20
-228.343
 10
99.7128
 20
-218.879
 10
95.7455
 20
-216.609
 10
95.2135
 20
-215.906
 10
76.9718
 20
-213.056
 10
95.2135
 20
-210.205
 10
95.7455
 20
-209.502
 10
99.7128
 20
-207.232
 10
99.7128
 20
-197.768
 10
95.7455
 20
-195.498
 10
95.2135
 20
-194.795
 10
76.9718
 20
-191.944
 10
95.2135
 20
-189.094
 10
95.7455
 20
-188.391
 10
99.7128
 20
-186.121
 10
99.7128
 20
-176.657
 10
95.7455
 20
-174.387
 10
95.2135
 20
-173.684
 10
76.9718
 20
-170.833
 10
95.2135
 20
-167.983
 10
95.7455
 20
-167.28
 10
99.7128
 20
-165.01
 10
99.7128
 20
-155.546
 10
95.7455
 20
-153.276
 10
95.2135
 20
-152.573
 10
76.9718
 20
-149.722
 10
95.2135
 20
-146.872
 10
95.7455
 20
-146.169
 10
99.7128
 20
-143.899
 10
99.7128
 20
-134.435
 10
95.7455
 20
-132.165
 10
95.2135
 20
-131.462
 10
76.9718
 20
-128.611
 10
95.2135
 20
-125.761
 10
95.7455
 20
-125.058
 10
99.7128
 20
-122.788
 10
99.7128
 20
-113.323
 10
95.7455
 20
-111.054
 10
95.2135
 20
-110.35
 10
76.9718
 20
-107.5
 10
95.2135
 20
-104.65
 10
95.7455
 20
-103.946
 10
99.7128
 20
-101.677
 10
99.7128
 20
-92.2123
 10
95.7455
 20
-89.9425
 10
95.2135
 20
-89.2394
 10
76.9718
 20
-86.3889
 10
95.2135
 20
-83.5384
 10
95.7455
 20
-82.8353
 10
99.7128
 20
-80.5655
 10
99.7128
 20
-71.1012
 10
95.7455
 20
-68.8313
 10
95.2135
 20
-68.1283
 10
73.6009
 20
-64.751
 10
74.9465
 20
-62.9729
 10
74.2497
 20
-57.0271
 10
71.3032
 20
-54.0542
 10
48.7865
 20
-57.5727
 10
48.2545
 20
-58.2758
 10
44.2872
 20
-60.5456
 10
44.2872
 20
-70.0099
 10
48.2545
 20
-72.2798
 10
48.7865
 20
-72.9828
 10
67.0282
 20
-75.8333
 10
48.7865
 20
-78.6838
 10
48.2545
 20
-79.3869
 10
44.2872
 20
-81.6567
 10
44.2872
 20
-91.121
 10
48.2545
 20
-93.3909
 10
48.7865
 20
-94.094
 10
67.0282
 20
-96.9444
 10
48.7865
 20
-99.7949
 10
48.2545
 20
-100.498
 10
44.2872
 20
-102.768
 10
44.2872
 20
-112.232
 10
48.2545
 20
-114.502
 10
48.7865
 20
-115.205
 10
67.0282
 20
-118.056
 10
48.7865
 20
-120.906
 10
48.2545
 20
-121.609
 10
44.2872
 20
-123.879
 10
44.2872
 20
-133.343
 10
48.2545
 20
-135.613
 10
48.7865
 20
-136.316
 10
67.0282
 20
-139.167
 10
48.7865
 20
-142.017
 10
48.2545
 20
-142.72
 10
44.2872
 20
-144.99
 10
44.2872
 20
-154.454
 10
48.2545
 20
-156.724
 10
48.7865
 20
-157.427
 10
67.0282
 20
-160.278
 10
48.7865
 20
-163.128
 10
48.2545
 20
-163.831
 10
44.2872
 20
-166.101
 10
44.2872
 20
-175.565
 10
48.2545
 20
-177.835
 10
48.7865
 20
-178.538
 10
67.0282
 20
-181.389
 10
48.7865
 20
-184.239
 10
48.2545
 20
-184.942
 10
44.2872
 20
-187.212
 10
44.2872
 20
-196.677
 10
48.2545
 20
-198.946
 10
48.7865
 20
-199.65
 10
67.0282
 20
-202.5
 10
48.7865
 20
-205.35
 10
48.2545
 20
-206.054
 10
44.2872
 20
-208.323
 10
44.2872
 20
-217.788
 10
48.2545
 20
-220.058
 10
48.7865
 20
-220.761
 10
67.0282
 20
-223.611
 10
48.7865
 20
-226.462
 10
48.2545
 20
-227.165
 10
44.2872
 20
-229.435
 10
44.2872
 20
-238.899
 10
48.2545
 20
-241.169
 10
48.7865
 20
-241.872
 10
70.3991
 20
-245.249
 10
69.0535
 20
-247.027
 10
69.7503
 20
-252.973
 10
72.6968
 20
-255.946
  0
ENDSEC
  0
EOF
